<mxfile host="app.diagrams.net" modified="2020-05-07T04:02:03.739Z" agent="5.0 (Windows NT 10.0; Win64; x64) AppleWebKit/537.36 (KHTML, like Gecko) Chrome/81.0.4044.138 Safari/537.36" etag="G6uMid_AjFjqJP06V7td" version="13.0.8" type="github">
  <diagram id="D3vTKutIS_15-BW3JUBj" name="Page-1">
    <mxGraphModel dx="1038" dy="548" grid="1" gridSize="10" guides="1" tooltips="1" connect="1" arrows="1" fold="1" page="1" pageScale="1" pageWidth="1169" pageHeight="1654" math="0" shadow="0">
      <root>
        <mxCell id="0" />
        <mxCell id="1" parent="0" />
        <mxCell id="BKqdm7RnQYUXvksjp9_F-2" value="狀態(S)" style="text;html=1;strokeColor=#000000;fillColor=none;align=center;verticalAlign=middle;whiteSpace=wrap;rounded=0;" parent="1" vertex="1">
          <mxGeometry x="80" y="110" width="80" height="20" as="geometry" />
        </mxCell>
        <mxCell id="BKqdm7RnQYUXvksjp9_F-3" value="模型P" style="rounded=0;whiteSpace=wrap;html=1;" parent="1" vertex="1">
          <mxGeometry x="200" y="90" width="120" height="60" as="geometry" />
        </mxCell>
        <mxCell id="BKqdm7RnQYUXvksjp9_F-4" value="操作建議(A)" style="text;html=1;strokeColor=#000000;fillColor=none;align=center;verticalAlign=middle;whiteSpace=wrap;rounded=0;" parent="1" vertex="1">
          <mxGeometry x="370" y="110" width="80" height="20" as="geometry" />
        </mxCell>
        <mxCell id="BKqdm7RnQYUXvksjp9_F-5" value="操作建議(A)" style="text;html=1;strokeColor=#000000;fillColor=none;align=center;verticalAlign=middle;whiteSpace=wrap;rounded=0;" parent="1" vertex="1">
          <mxGeometry x="80" y="281" width="80" height="20" as="geometry" />
        </mxCell>
        <mxCell id="BKqdm7RnQYUXvksjp9_F-6" value="模型V" style="rounded=0;whiteSpace=wrap;html=1;" parent="1" vertex="1">
          <mxGeometry x="200" y="250" width="120" height="60" as="geometry" />
        </mxCell>
        <mxCell id="BKqdm7RnQYUXvksjp9_F-7" value="結果(Y)" style="text;html=1;strokeColor=#000000;fillColor=none;align=center;verticalAlign=middle;whiteSpace=wrap;rounded=0;" parent="1" vertex="1">
          <mxGeometry x="370" y="270" width="80" height="20" as="geometry" />
        </mxCell>
        <mxCell id="BKqdm7RnQYUXvksjp9_F-8" value="" style="edgeStyle=segmentEdgeStyle;endArrow=classic;html=1;exitX=0.5;exitY=1;exitDx=0;exitDy=0;entryX=0.5;entryY=0;entryDx=0;entryDy=0;" parent="1" source="BKqdm7RnQYUXvksjp9_F-4" target="BKqdm7RnQYUXvksjp9_F-5" edge="1">
          <mxGeometry width="50" height="50" relative="1" as="geometry">
            <mxPoint x="500" y="160" as="sourcePoint" />
            <mxPoint x="550" y="260" as="targetPoint" />
            <Array as="points">
              <mxPoint x="410" y="200" />
              <mxPoint x="120" y="200" />
            </Array>
          </mxGeometry>
        </mxCell>
        <mxCell id="BKqdm7RnQYUXvksjp9_F-9" value="" style="edgeStyle=segmentEdgeStyle;endArrow=classic;html=1;exitX=1;exitY=0.5;exitDx=0;exitDy=0;entryX=0;entryY=0.5;entryDx=0;entryDy=0;" parent="1" source="BKqdm7RnQYUXvksjp9_F-2" target="BKqdm7RnQYUXvksjp9_F-3" edge="1">
          <mxGeometry width="50" height="50" relative="1" as="geometry">
            <mxPoint x="500" y="210" as="sourcePoint" />
            <mxPoint x="180" y="120" as="targetPoint" />
            <Array as="points" />
          </mxGeometry>
        </mxCell>
        <mxCell id="BKqdm7RnQYUXvksjp9_F-12" value="" style="endArrow=classic;html=1;exitX=1;exitY=0.5;exitDx=0;exitDy=0;" parent="1" source="BKqdm7RnQYUXvksjp9_F-6" target="BKqdm7RnQYUXvksjp9_F-7" edge="1">
          <mxGeometry width="50" height="50" relative="1" as="geometry">
            <mxPoint x="500" y="210" as="sourcePoint" />
            <mxPoint x="550" y="160" as="targetPoint" />
          </mxGeometry>
        </mxCell>
        <mxCell id="BKqdm7RnQYUXvksjp9_F-13" value="" style="endArrow=classic;html=1;exitX=1;exitY=0.5;exitDx=0;exitDy=0;entryX=0;entryY=0.5;entryDx=0;entryDy=0;" parent="1" source="BKqdm7RnQYUXvksjp9_F-3" target="BKqdm7RnQYUXvksjp9_F-4" edge="1">
          <mxGeometry width="50" height="50" relative="1" as="geometry">
            <mxPoint x="500" y="210" as="sourcePoint" />
            <mxPoint x="550" y="160" as="targetPoint" />
          </mxGeometry>
        </mxCell>
        <mxCell id="BKqdm7RnQYUXvksjp9_F-14" value="" style="shape=image;html=1;verticalLabelPosition=bottom;labelBackgroundColor=#ffffff;verticalAlign=top;imageAspect=1;aspect=fixed;image=data:image/png,iVBORw0KGgoAAAANSUhEUgAAAH0AAABHCAYAAAAqYUjuAAAAAXNSR0IArs4c6QAAAARnQU1BAACxjwv8YQUAAAAJcEhZcwAAEnQAABJ0Ad5mH3gAAAXoSURBVHhe7Zu9SyNbGIfnrzhlxCZgEasM3MKIRQILq1hELBKrVRuDsMFtXBEMWoTdQvEWK1MoChIsFC0UUmxII1hsSCFhRURBgrJcrv/C774nk9HMZJJMrsnk45ziAXfOFDnzzHk/zplV/vn3BRKxkNIFREoXECldQKR0AZHSBURKFxApXUCkdAGR0gVEShcQKV1ApHQBkdIFREoXECldQKR0AZHSBURKFxApXUCk9C6jeKUhPj2BwIgX3uAckucPtve9Bym9m7jeRzSiIVf+d06bAlNUfE0/V9/7DqT0LiKzwQVXXkvjK1OgTO+jUHHfe5HSu4Yb7EyS4MElXDxZrikruKi6//8jpXcNz7hYHobC5pC6N65lkfCR9Emtx1f6Yxapsxv7sT6mcKbh4tZ+rJLi6yqnv9Mr8PV8Tn+kHDUyhZ28zVi/c09zD85gz/Hc89gKMoS1vM3Y+3BReh470wMI7zaxym9PEZ+kfPZoM9aD8JWr+p3Mh4f6EKK7rRfOcU16bjPUXG7iwv0MwckQGH9Qr3mul3nGySIDWzxF0XZcJ6fFsHBYIfyxF8P77RFmGUP8zOGPLwkfQLQc2nLaDDz9Iv7XNoLKMBJZmzGimP6GxHHlhgyF+fm33r0VuCI9s0ZVqW8dGZsxOzIbU4ibJv6Cu+MlLPxoT7hzlwfsRagij+zjzjqW1xAe9CIwNvrGiBfsS9p83ztxQbredvjWsjZjYlLQJqj3pqLOVM3fYG+a9+TVBDZb+7K3X3p2ndoOBQvHrc1LPQ2F+AA9k9nD1u+rO6Ht0nM/+Fs94aBNe8AJVazqED9oiCFlvf+JIsYIg6dLIkbxahtRvwov/d5wMltVmBUOqA5htJp/m6/rpBHnq3i5tWHbKW2XfrHMQ9RSg21E3qJMlPM49bP8gXw6Muc8ancYXfdtdIF0yr3RyDYuqfXSQ7W1MDO2Tyt31yqh9vUjjbd4p80pbZZenjxbqV/EUQoIGG1MOfRZpWc2qBik651PEw9IfZrA1i/+N2/BuFyL9HvqVvgcxrZrVN3t2VN3ijvSG7zR/HTJaOdyf1M/Tw8semBuW0orQ5mqES5dhAsNlmU+UWvJT8Gsncn5UmkObLV2VNIjYF9K51uJjaW/QfeP8YdhCYsNV46VG5wk15FYa55kE+cCxeNYSa415TiJSn0s3dlKf6VGaDfyOWui8ClkT3Fy1jwZx5GkRmh/Dd1UvF5XXjfT/9I/OttR0osiBeOaebXlNkdL1zvV4thT/sCB6hWTOAr5C/zFrbsZxeuCvpXe3OT0t3+0XCQZGJsWTto+F7nWMM7lWvfRf+pRSam7i1ZeDI7TVWtps3TKb6uMhNVqXczo0i1yH8v5vIltXFcwpFvkXn53EpWyepSwpjGXaLv0u8M5egi1DxgquTuaK62S18r9PovEB/7S0ANqcDLlPldI+s0vY+5gDir/rVXRysLvfYTpvlZvrzql7dKNFWHN0/Y841KLITjE4Bn0wvshhsRnvYVr6hzeLW7TSERUeNgAPEMqohsrelRqtC9RaumcLYR20H7pRv5yEsr+WK8ZlXCo/srpBFW/lTC6jM/1o1Kzp46txgXpej/Lqk6VKqGCb36A5DLzJ8Cls2d6iB3KfTXJfkOA52RTK6p/IKEoaoMVrJ86Oot87cEV6cYmjVpr37yc48zS+edV9BBZ931TpxenZumlT6HomrqcrrvKeY3DfNTNVHwA6TYuSSey61BJ4J7thoXe84a/X+kP7E8ee/MqlMEZbF1135FsaT/hrxhS5Y2cu5/rCDKGwJfT+hHpiap2/zDi552dk3vSCf7fdDzT9hs1RQqZUT8P8RTOh0KYTR4h17WfR+WRWgzBy0O8MgA1soKddKNwzU8SRxFYrR8J3MBV6Zzc7gyCq9Xnz/1OgeY9TumtG+btunRJ55HSBURKFxApXUCkdAGR0gVEShcQKV1ApHQBkdIFREoXECldQKR0AZHSBURKFxApXUCkdAGR0gVEShcQKV1ApHTheMF/zMxLoNIwFTcAAAAASUVORK5CYII=;strokeColor=#000000;" parent="1" vertex="1">
          <mxGeometry x="470" y="240" width="107" height="61" as="geometry" />
        </mxCell>
        <mxCell id="BKqdm7RnQYUXvksjp9_F-17" value="" style="shape=image;html=1;verticalLabelPosition=bottom;labelBackgroundColor=#ffffff;verticalAlign=top;imageAspect=1;aspect=fixed;image=data:image/png,iVBORw0KGgoAAAANSUhEUgAAAIEAAABTCAYAAAC4VmR0AAAAAXNSR0IArs4c6QAAAARnQU1BAACxjwv8YQUAAAAJcEhZcwAAEnQAABJ0Ad5mH3gAAAZtSURBVHhe7Zy/SyNbFMfnr5hSsRG20CrTrWIRYWEVi4jF2+UVq5WyRcg2RgTFFPIaxUZJofhgEQtDLAyk2JBmYYuVFIusiChIMCyPt//CeefOnZlM8sZk7sy9SSZzik9h7kRm7nxzfs9o//z7G4h4QyIgSAQEiYBASAQEiYAgERAIiYAgERAkAgIhERAkAoJEQCAkAoJEQJAICIREQJAICBIBgZAICBIBQSKIOI9Qyq3A3JtpMF6NQ2r9FL4+eR3XGRJBZGlAZXMesuUG//upDNmEBvpSHq7/d2xnSARR5eEclhfycOP67CY/D5qmQ/aL6zgfkAiiSnnDvOFzh7W2zzSYy9+2HtsFEkFU+ZGHObzhxu4357P7zyvcEpTbju0CiSDKPFvxgMktHC0MekxQK8LucVO1BAODu8O/oFDzWhOjfrEGemIDSgObHdTykHq9AmcSLnboYHsztghHYfYG/8e7ZDABMNSLgF2kPh/uIoecOgZ0RiLgj4Slhn/uQMURQAPqz651H6gVgZm76pDKuyJYwpPrQ0zvMOUT8+c1ONk6aCkQMbeQvnIf0x2FImhAad0IcGFt3BUhvRDc1EWHGuwnMdrfrELdc70dvr8jiWmYmmlijIlbXWUiqH9BE6dNwnbVe90XTABoSZILszzoefA4ZohgbmFCM/ztGe6vjikiqwu0sgaFwXAHXNXaH6dw77nuA1MAo/DOciXX+feo+mEXAk/zmPV0VwJVo0QEZrqi6ZC+dOexYlRyi5C+eGz57P4iA6vuCtkQUr/M4N5NNnsCPUCBCCwrMIERq+c60ZkqbE+EtKKCyBdBdQf9mgYTuar3OtGVytYk+vZZ2P/uvS4b6SKo5NgFhAwI27n7BicXfqPmQeQRvv5dhIrfgA0DRBb0Te31xvVJFoFlyrQMlDzXg2AFS/pGZN2LcIv3uQirLNKfOQiXXvtErgi+H8AUO/kP59L8GQ8ymbAwM/BYH3ie8Ibq7Pw1ge7eLZwsse9gzv/Da10uUkXAW5kSzdhzGbKmZWEswslPj2MGGlbQYe6RX0Pq2H+fn7tVDVYv1GcJUkVQWucXK+vEr/dm0Q3oliXoza9CKmgZk+gGdMsSiAx72D8ofVN9gC1RBJbvlhUU3p3Dsm5A9vjAHJ4IMjbVXx7h7IMOxuYp7Jv7InhD7Yrg0qnywpFEEaDpNm+WjF8sN6P6xyLU7SAJEZ2Y6SdmCVhfg8JTAwof+flr62XPYz2xJod6ERDLE8HPU0iZN0tCAMfMqL4CZ3fsb1tcYj61v7CCmQ7Ln3nF03aTQr9qR/zivQBR5InAVm5oEbDI2D1AWYOjt3wTRQco+8XN8SLoru6p2SZmeyPUE5BpWTsjTwTWpKv2NlzrmI9JuUvOdqzRmyApNGZK2NoJ5HUCvAYh026LYFp55VC+CEJ1wKqwnZiE9FVrdlH6xEUg5FP7RCVnwMSncmt18yrDz1/ISjbFrzoWGigRsF+M7lFoCuRTcRMLuzuwvSXO7mVAt8NcohPLuLD3RqjWEUcRuCprLyL4v2+qRShcilMJVJRiWYDufd4OIv49diJgz9VNvxj9B/OpvYVNUk29ZKmcoFmk1hFlEQRperCUMNnhe445HdT+AUsJO7V+m2mu/xtqf0dyR9YDeSIInCKyypqBm9Oh1OyIYDBLx6zEa2DQ+nKruykC/2luFFPEIMWiX49Q2cOcWstA4ZfHuk2N1eCtDRmw5xfuqweQwlgmfem9zkFL8cYSgd/xOKdYhIGm4rlKeSIQUS7rDr4etxpDNqNOhc3m/jwDU4lR1zGckcQsbCv2k51pQAljmPG2QHakPbN5OIf0jAEjrmNMxgxI5rqku5EsGzuBjHofFgui2UCS30qOMxFtJTdPvFezccOMPVTS7iJVIFUEKsbL4kmEx8vUDJrGkEgPmiJKRs7jRjnSI+eI5RLo4ZPgRP7hEydVpMfQAlKGLKs/RPoxNIQ/VBnugdS40o+9UyICxxr0UM3DgfUwb6jBHHEUiQCp7pgvqejlI9ZRR+glFRJRJwJzRsAArVOLmHDBRutEXlcjD4UiYHDz5rtzFmPMp6369INRLALEfIVdl3mBmBPqFXYSUC8ChowXNg4rbG9evYeTPu5Nb0TAoNfaeiDvtbZh6J0IiIGFRECQCAgSAYGQCAgSAUEiIBASAUEiIEgEBEIiIEgExG/4D7WCSRRBWh44AAAAAElFTkSuQmCC;strokeColor=#000000;" parent="1" vertex="1">
          <mxGeometry x="476" y="89" width="95" height="61" as="geometry" />
        </mxCell>
        <mxCell id="BKqdm7RnQYUXvksjp9_F-18" value="" style="shape=image;html=1;verticalLabelPosition=bottom;labelBackgroundColor=#ffffff;verticalAlign=top;imageAspect=1;aspect=fixed;image=data:image/png,iVBORw0KGgoAAAANSUhEUgAAANIAAABDCAYAAADpo1ukAAAAAXNSR0IArs4c6QAAAARnQU1BAACxjwv8YQUAAAAJcEhZcwAAEnQAABJ0Ad5mH3gAAAjvSURBVHhe7ZzPS1vbFsfzV5yh4iTQQToyMyMdGChUcRBxUOUNqpNXKSh1oiIodhDuG1zpHVQyqKRQxMENOqiQQUMGT3BQyaBIpcgNSKjI5fZfWG/ts/fRmOxz9kmyfDft/Q4+A7NizsnZ67t+7a2JP//6TgCA3oCQABAAQgJAAAgJAAEgJAAEgJAAEABCAkAACAkAASAkAASAkAAQAEICQAAICQABICQABICQABAAQgJAAAgJAAEgJAAEgJAAEABCAkAACAkAASAkAASAkAAQAEICoTSq+1T6bLfJUaOj9yd0YbW5uKLK+yIdX9psTXw+oJ0PdbtNCAgJWGmU1ygzXaBTi02OGu1Mj9Jq+cpii0mtQDNja3QUKaY6Ha1kaeZtzWKToQchVSn/eJQyI0nyEglK+AxS+hG/FuDb+LXJecofnls+A/Ql7Jy5oSnavddsdMXOnab0epUaVnt8TgtTNOAS/WWZVofTvYk2AoGMdE47k1pI4wWLWL6d095imu0eZTZ6f2jgvqnR9ljIWgrS+H2BvBRnkm92e2foex77NTrj+Nf0FqjkKgW7QEBIZVrys9FD2qza7AxHuHH/PVna/mSxg77h4v08O9tLKok4eBhV2hxmx/9NrtRqHL7k6meWdr/a7RotuBQHdLu9e3oXUnWLUkokHkcXm13x6TVlfCElOLVa7KBPYAdP3Y+jNXPxbpZ9weX0nRLv3u/n2gJCOns75Qsk8Ww/dPKiopzuoSKyFvj78YPifa9RnXafsi88LXY5qQvnaMWjRGqLKhbbDZ91dTTzTnaK16OQrqj0Qmea8Tdhafr2PYnJAp1Z3wP6gcqrh7xO3EPcZ1n3xz7NsS9kHP1MN6geyB2subx7xL4YEfi7oUch6XQaefNc1o0pEXlTtFOz2IEANdp7kaX00CB5Iwu01/yca0WaGUrEmI7VaOcJr9OTiOlXbZ+ejyVpYChJubz+vIsPWzQzrF4bpGRu7e61bXx46QfVpQ8Wm4XT/TX+/EEaeJAkbyhNMxvlcAGYXtw1KDlaVj4b0Yp0QW9CMmnS2h9d1+mYH8KYl+DF5eZVuCYFAWqMPEGr/oajGfw0RdvjvJqYxnGcMq2q9y2XLTaFatQn/GB4+maCP8+jscksZRb36exav6eyzhnNm6e9iLU+K6jf1Z9jszejxtreMN/3H+a1byeUf5ygufdhZZn5/ith30Gj75/vQXC835OQdCpVi2SBo8f4sy3aKZ//WCPvrxzBbd8nLvdQ+0fCfU3mxYF+xsFQp7ls8fdP1L05hGSCoseZy2pX/ZO5jhYDZzl22DtrW17zX48q245W1L1M0e4Xu/0Gsw7Pf7/d99GlZ4Jyb8MyjgkGjhYiuH/JwVdPQqqsc3PHN5R61dmU5+JTkZZGZFPrP5XKqzQtHWpnO/0t669HayPtB7zpYnR/aoQUVhapz9ZOHfS8lnLeCCkRCNuCFlKMtTeflVo+oAvTszWqBdrMRx0JMnuarl7cfHafCMk0bXxD8erdOpXWZ2n88SzNTKvI8k8X0jmV8lu0udE59lMiwXq0DwuUkJzBzvSy7o1Y0xdbynldMrEttDz8TqVFdY8x1j7YVjEMDM/S6jvXmbwfUUhm+hIrTbegUysy0ln1gEqHnVOxPe/A8SzTqKOVQbfTODLSDUFf3JZ1bqez7tIuztpz77c+2nT8TBM9NPkRhWSmL865vQUISZ7TX0f99WjvH9QpghjPOhBS6DaGJuiL2wXH/YmnnD16/KyF9NJxP1d0EZRvl3U6re7T9r8DUUV9F5MtHUIK9jX7QkhB45eIqIfDcAnp7PAXmpvUB1/Tw1OUr7YcNFRjWHVgVh2Mfdwy7o1jj+JHGzYYtIO2O7E6OpOJ08MGFYZj4qX7Yvt1lKN7jv0Z7TdREzN1IlxdI035/7a8rsbzkYHbDBscPqn9b1T0uFqXQmo6qOqIYDbChaTT+cD069uG8uQXytwZqaoIG4xPr3hhsi2TJpf950QLqXWszH3Tk7iHNKs6o0QKwTiz5Tq+P8TYK9QnYSKyVlA6tp3LPKE894DpqKDwpUg5/l1XP6iDAftUMFYXoDshNUXtbtJjmJAaXC6m2h6g3hu4GWj4vcC8OStVp9LGAm1XmzKWy/6TEmSE8eAg6LU6dT/B6xP3u9dp7xmvaVTEv+mL9ehbC66uexkW0fZJjGuZXi50L+jbAS15SVo6bLJf8zU4IA6oSW9UUPi45j+D5pF5O+e0O83f4dFr0b+16kBI/KAXudQa0g/yFv03SM9DN8nasQvJZLnW0sjsVt88HLWYfi3OZcSDLF+3JSO67D8xwSmAxBCvyfAsbXb4V6F6XSLKLm7SlaNm/lOmSn7CP80wwE6fWynScezornspL6KEbJwUafVp2v9s9TdtSa4w5vIHNxu/YeipoSvT6MDc6ZaNi+6HDT1gF5L+gq0TH90YtizulzLt5Bco90ClaMvU0GUHdkxZFZYtgoFG3OM9YcQ6XNox5jCso0fTGTF6ININfSeku4ukH45nmsfGxy3KDM3eCoPLgOdNQnHZgQs1wmYntw5MTEkk8Tz9PSthZ/bbjYfOUray8dA9Hu+CPhISL+Kix2XDyc1rp2+m7tTF6tzYwORrOg5+h2vidFMEctlBDHwnT7c7uR+UWEgimUQL1jXh6wR1wsMpkK+q7HeLrRv+r0Kq5M1I2++zPEqOqJ8XaC+IcJcntP2MX1Ovj2Tb6+LLKuX/NUVzy1u0uThPucXC3eMiLjuIhXJKb7rlSFGw4dvFdocV36nTtPpRwKk/FynntU4SW7miynqaUsst5wOF+FsyEuh31F7OIOUK3K9el2nzEWd6JSIfHQCXIidj8VD/qSitNot7CnbqXpPO/xDk/1ck19SvByAkEEKN+9OsTMaIQDn4GPdk3fUsKstM0JxrMssZa2aSS9J7rE4gJAAEgJAAEABCAkAACAkAASAkAASAkAAQAEICQAAICQABICQABICQABAAQgJAAAgJAAEgJAAEgJAAEABCAkAACAkAASAkAASAkAAQAEICQAAICYCe+U7/A2UBgOxulZyQAAAAAElFTkSuQmCC;strokeColor=#000000;" parent="1" vertex="1">
          <mxGeometry x="179" y="360" width="191" height="61" as="geometry" />
        </mxCell>
        <mxCell id="BKqdm7RnQYUXvksjp9_F-19" value="" style="edgeStyle=segmentEdgeStyle;endArrow=classic;html=1;exitX=0.5;exitY=1;exitDx=0;exitDy=0;entryX=0;entryY=0.25;entryDx=0;entryDy=0;" parent="1" source="BKqdm7RnQYUXvksjp9_F-2" target="BKqdm7RnQYUXvksjp9_F-6" edge="1">
          <mxGeometry width="50" height="50" relative="1" as="geometry">
            <mxPoint x="120" y="170" as="sourcePoint" />
            <mxPoint x="180" y="250" as="targetPoint" />
            <Array as="points">
              <mxPoint x="120" y="170" />
              <mxPoint x="160" y="170" />
              <mxPoint x="160" y="265" />
            </Array>
          </mxGeometry>
        </mxCell>
        <mxCell id="BKqdm7RnQYUXvksjp9_F-22" value="A = P(S)" style="text;html=1;strokeColor=#000000;fillColor=none;align=center;verticalAlign=middle;whiteSpace=wrap;rounded=0;" parent="1" vertex="1">
          <mxGeometry x="220" y="69" width="80" height="20" as="geometry" />
        </mxCell>
        <mxCell id="BKqdm7RnQYUXvksjp9_F-23" value="Y =V(S,A)" style="text;html=1;strokeColor=#000000;fillColor=none;align=center;verticalAlign=middle;whiteSpace=wrap;rounded=0;" parent="1" vertex="1">
          <mxGeometry x="220" y="230" width="80" height="20" as="geometry" />
        </mxCell>
        <mxCell id="BKqdm7RnQYUXvksjp9_F-25" value="" style="endArrow=classic;html=1;exitX=1;exitY=0.5;exitDx=0;exitDy=0;" parent="1" source="BKqdm7RnQYUXvksjp9_F-5" edge="1">
          <mxGeometry width="50" height="50" relative="1" as="geometry">
            <mxPoint x="470" y="310" as="sourcePoint" />
            <mxPoint x="200" y="290" as="targetPoint" />
          </mxGeometry>
        </mxCell>
        <mxCell id="Etz6l2xm8BaEoB14CqTA-1" value="min" style="text;html=1;strokeColor=none;fillColor=none;align=center;verticalAlign=middle;whiteSpace=wrap;rounded=0;" vertex="1" parent="1">
          <mxGeometry x="330" y="360" width="40" height="20" as="geometry" />
        </mxCell>
        <mxCell id="Etz6l2xm8BaEoB14CqTA-2" value="min" style="text;html=1;strokeColor=none;fillColor=none;align=center;verticalAlign=middle;whiteSpace=wrap;rounded=0;" vertex="1" parent="1">
          <mxGeometry x="537" y="240" width="40" height="20" as="geometry" />
        </mxCell>
        <mxCell id="Etz6l2xm8BaEoB14CqTA-3" value="min" style="text;html=1;strokeColor=none;fillColor=none;align=center;verticalAlign=middle;whiteSpace=wrap;rounded=0;" vertex="1" parent="1">
          <mxGeometry x="531" y="89" width="40" height="20" as="geometry" />
        </mxCell>
        <mxCell id="Etz6l2xm8BaEoB14CqTA-4" value="improve&amp;nbsp;policy" style="text;html=1;strokeColor=#000000;fillColor=none;align=center;verticalAlign=middle;whiteSpace=wrap;rounded=0;" vertex="1" parent="1">
          <mxGeometry x="180" y="340" width="190" height="20" as="geometry" />
        </mxCell>
      </root>
    </mxGraphModel>
  </diagram>
</mxfile>
